# xmcd CD database file
#
# Track frame offsets:
#	150
#	19328
#	45496
#	77240
#	100242
#	126620
#	150919
#	169129
#	184978
#	206472
#	223797
#	244341
#	263396
#	281706
#	304643
#	319536
#
# Disc length: 4799 seconds
#
# Revision: 0
# Processed by: cddbd v1.5.1PL2 Copyright (c) Steve Scherf et al.
# Submitted via: CDex 1.51
#
DISCID=de12bd10
DTITLE=Cassandra Wilson - Thunderbird and more
DYEAR=2006
DGENRE=Jazz
TTITLE0=Cassandra Wilson - Go To Mexico
TTITLE1=Cassandra Wilson - Closer To You
TTITLE2=Cassandra Wilson - Easy Rider
TTITLE3=Cassandra Wilson - It Would Be So Easy
TTITLE4=Cassandra Wilson - Red River Valley
TTITLE5=Cassandra Wilson - Poet
TTITLE6=Cassandra Wilson - I Want To Be Loved
TTITLE7=Cassandra Wilson - Lost
TTITLE8=Cassandra Wilson - Strike A Match
TTITLE9=Cassandra Wilson - Tarot
TTITLE10=Cassandra Wilson - Fragile
TTITLE11=Cassandra Wilson - Sleight Of Time
TTITLE12=Cassandra Wilson - I Want More
TTITLE13=Cassandra Wilson - Lay Lady Lay
TTITLE14=Cassandra Wilson - What Is It
TTITLE15=Cassandra Wilson - Come Sunday
EXTD=YEAR: 2006
EXTT0=
EXTT1=
EXTT2=
EXTT3=
EXTT4=
EXTT5=
EXTT6=
EXTT7=
EXTT8=
EXTT9=
EXTT10=
EXTT11=
EXTT12=
EXTT13=
EXTT14=
EXTT15=
PLAYORDER=
